<svg version="1.1" xmlns="http://www.w3.org/2000/svg" xmlns:xlink="http://www.w3.org/1999/xlink" width="37.26283" height="78.53876" viewBox="0,0,37.26283,78.53876"><g transform="translate(-222.96239,-119.41455)"><g data-paper-data="{&quot;isPaintingLayer&quot;:true}" stroke="none" stroke-linecap="butt" stroke-linejoin="miter" stroke-miterlimit="10" stroke-dasharray="" stroke-dashoffset="0" style="mix-blend-mode: normal"><path d="M245.53765,197.95329c-0.50309,-0.08665 -9.13121,-2.37356 -9.13121,-2.37356c-0.13364,-0.53077 -0.08259,-1.28361 -0.0595,-1.81674l5.41009,1.04904c0.63441,0.46082 3.23006,2.02107 3.9884,2.38606c-0.06076,0.12624 -0.11421,0.72244 -0.20778,0.75521z" fill="#000000" fill-rule="evenodd" stroke-width="1"/><path d="M236.39119,193.64038c-0.03876,-0.97267 0.50409,-14.09235 1.35496,-20.62165c0.08123,-0.75019 0.24552,-3.5984 0.35171,-6.63618l10.77402,5.72922l-7.0551,22.82697z" fill="#000000" fill-rule="evenodd" stroke-width="1"/><path d="M250.71938,194.64669l5.04457,0.54372c1.01854,0.43597 3.30217,1.1145 4.22415,1.42711l0.23712,0.81054c-0.8657,-0.0378 -9.13751,-0.27974 -9.55247,-0.91072l-0.21067,-1.03069c0.06705,-0.37155 0.06705,-0.37156 0.25731,-0.83994z" fill="#000000" fill-rule="evenodd" stroke-width="1"/><path d="M258.05865,184.61628c-0.37781,3.69173 -1.06771,6.81719 -2.23611,10.30215l-5.07234,-0.121c1.27149,-3.88054 1.33004,-9.15956 -0.88965,-12.74756c-1.49708,-2.11894 -3.52033,-3.79146 -5.90377,-4.70053c-0.41496,-0.17067 -1.68777,-0.52839 -2.15028,-0.61207l3.12754,-13.48668c1.86178,0.62358 5.72332,2.34186 7.25258,3.57447c0.94839,0.74511 2.01878,2.40453 2.91893,4.4793c1.256,2.04341 2.0217,4.15758 2.60542,6.39816c0.09862,0.33644 0.60201,4.79299 0.34769,6.91376z" fill="#000000" fill-rule="evenodd" stroke-width="1"/><path d="M257.90218,165.27632c0,6.33924 -4.03108,11.68465 -9.5351,13.33599c-3.18868,-0.22164 -6.35506,-0.58983 -9.55126,-1.10994c-0.51587,-0.37359 -1.03133,-0.74871 -1.54706,-1.12456c-0.59109,-0.43078 -1.20445,-0.86808 -1.80991,-1.32427c-2.36264,-2.50663 -3.8228,-5.96194 -3.8228,-9.77722c0,-7.65615 5.87988,-13.86268 13.13307,-13.86268c7.25319,0 13.13306,6.20654 13.13306,13.86268z" fill="#000000" fill-rule="nonzero" stroke-width="0"/><path d="M238.7086,153.91162v23.51308c-0.48008,-0.3479 -0.95985,-0.69707 -1.43984,-1.04689c-1.74434,-1.27126 -3.68263,-2.59915 -5.03922,-4.30253c-0.04585,-0.08507 -0.09171,-0.17009 -0.13761,-0.25503c-0.17619,-0.41873 -0.34352,-0.83928 -0.50242,-1.26022v-11.4362c1.5565,-1.74133 3.29283,-3.52352 5.00786,-5.21221z" fill="#ffd000" fill-rule="nonzero" stroke-width="0"/><path d="M234.86373,155.99504c0.06593,-0.08791 0.13186,-0.17582 0.19779,-0.26372l0.25911,-0.18987c0,0 0.0163,-0.01088 0.04283,-0.02197c0.33055,-0.57726 0.72621,-1.0439 1.34851,-1.09387v-0.11288h0.26372c0.13807,0 0.25,0.11193 0.25,0.25c0,0.06904 -0.02798,0.13153 -0.07322,0.17677l-0.19779,0.19779l-0.01005,-0.01005l-0.02054,0.03609c-0.2893,0.14464 -0.57862,0.41044 -0.85039,0.71451c-0.7722,1.04955 -1.97178,2.54584 -2.2721,2.66581l-0.23409,0.17557c-0.04212,0.03231 -0.09483,0.05151 -0.15202,0.05151c-0.13807,0 -0.25,-0.11193 -0.25,-0.25c0,-0.06904 0.02798,-0.13153 0.07322,-0.17677l0.19779,-0.19779l0.0184,0.0184c0.31718,-0.63567 0.76666,-1.26497 1.23427,-1.73257l0.10062,-0.15969c0,0 0.02449,-0.03674 0.06832,-0.06904c0.00346,-0.00534 0.00562,-0.00822 0.00562,-0.00822z" fill="#ffd000" fill-rule="nonzero" stroke-width="0.5"/><path d="M233.11813,171.27506c-0.06971,-0.02648 -0.15045,-0.08782 -0.15045,-0.22988c0,-0.25 0.25,-0.25 0.25,-0.25l0.28954,0.1382c0.491,0.982 1.63152,3.78387 2.34236,3.95691c0,0 0.13721,0.03431 0.17943,0.15451c0.49491,0.24106 1.00131,0.88787 1.42632,1.20663l0.1,0.26593c0,0 0,0.0268 -0.00878,0.06285c-0.09259,-0.06744 -0.18519,-0.1349 -0.27781,-0.2024c-0.79225,-0.57738 -1.6245,-1.16646 -2.4241,-1.79708c-0.67565,-0.94929 -1.33226,-2.4938 -1.72652,-3.30567z" fill="#ffd000" fill-rule="nonzero" stroke-width="0.5"/><path d="M252.79741,153.76909c1.83214,1.75851 3.68703,3.61441 5.34982,5.42774v13.66884c-0.27056,0.20345 -0.33102,0.51178 -0.33102,0.51178c-0.00236,0.0135 -0.00482,0.02699 -0.00737,0.04049c-0.16608,0.17543 -0.28881,0.37226 -0.3924,0.59075c-0.07502,0.06253 -0.11569,0.11189 -0.11569,0.11189c-0.42678,0.51871 -0.80596,1.03896 -1.15059,1.575l-0.27159,0.34692c-0.9906,1.04518 -2.33089,1.64461 -3.3715,2.63168h-1.96505v-24.90508z" data-paper-data="{&quot;index&quot;:null}" fill="#ffd000" fill-rule="nonzero" stroke-width="0"/><path d="M238.62394,153.90342h11.9333v24.83794c-3.93325,-0.19034 -7.81482,-0.60003 -11.74142,-1.23899c-0.06396,-0.04632 -0.12793,-0.09268 -0.19188,-0.13905z" fill="#0f00ff" fill-rule="nonzero" stroke-width="0"/><g fill-rule="evenodd" stroke-width="1"><path d="M252.17152,143.60168c0.9089,-2.36058 7.93801,-3.75265 6.48365,1.029c-1.45428,4.78164 -6.48365,3.38949 -6.48365,3.38949c0,0 -0.48482,-3.26844 0,-4.41849z" fill="#824600"/><path d="M256.89795,140.33324c0.06057,5.1448 -2.12089,9.74483 -4.30227,12.10541c-3.75697,3.93428 -11.1496,3.14747 -13.0887,2.5422c-3.57518,-1.15005 -6.96846,-6.23437 -8.96813,-10.95545c-0.60595,-1.81589 -1.15135,-3.69216 -1.57551,-5.6291l17.02738,-9.32118c0,0 7.75622,1.63426 8.18038,2.23952c0.60595,0.72632 2.72685,5.44748 2.72685,9.0186z" fill="#a0640a"/><path d="M227.26669,127.44094l0.5453,-0.36325c-0.84832,-2.11839 -2.60554,-5.38691 0.84841,-6.11323c2.12081,-0.42364 5.1506,1.93685 5.75655,3.81322c0.36359,0.18162 0.36359,0.18162 0.72718,-0.06048c-0.24245,-1.57369 -0.96955,-3.57111 0.36351,-4.78164c3.93876,-2.23953 5.81721,3.32901 8.11981,5.56845l0.54539,-0.06048c0.42416,-1.75531 -0.78775,-4.17638 1.81787,-4.23695c1.7573,-0.06048 2.54505,1.45264 3.39337,2.60269c2.12081,2.72374 5.02946,7.56596 5.02946,7.56596c0,0 0,3.02633 -4.54472,3.81322c-2.24203,0.42364 -6.18071,-1.93694 -12.17972,0.42364c-5.99892,2.36058 -5.93834,10.53171 -5.93834,10.53171c0,0 -6.60496,-12.16597 -7.39272,-13.9212c-0.60595,-1.33167 -2.24204,-5.1449 -0.84833,-6.29486c1.03012,-0.84737 2.84799,0.96842 3.75697,1.51321z" fill="#000000"/><path d="M232.65965,147.59652c0,0 -5.02937,1.39207 -6.48373,-3.38958c-1.45428,-4.78164 5.57484,-3.38949 6.48373,-1.02891c0.42416,1.14996 0,4.41849 0,4.41849z" fill="#a0640a"/><path d="M242.05204,146.3859c2.60554,0.24211 4.9688,1.21062 7.39263,2.23953c-1.21192,4.11589 -9.81646,1.5132 -7.39263,-2.23953z" fill="#000000"/><path d="M246.77847,145.11488c-1.45428,-2.60269 4.18113,-4.96327 4.90823,-1.15005c0.48482,2.96585 -3.15093,1.57369 -4.90823,1.15005z" fill="#824600"/><g fill="#000000"><path d="M241.88493,142.50425l-0.36359,0.84737h-0.60596c-0.18179,-1.029 0.60596,-2.60269 0.96955,-0.84737z"/><path d="M254.97362,144.6832l-0.54539,-0.06048l-0.18179,-1.21053c0.36359,-0.42373 0.36359,-0.42373 0.72718,-0.30267c0.18179,0.48422 0.18179,1.029 0,1.57369z"/></g></g></g></g></svg>