<svg version="1.1" xmlns="http://www.w3.org/2000/svg" xmlns:xlink="http://www.w3.org/1999/xlink" width="48.42669" height="76.74747" viewBox="0,0,48.42669,76.74747"><g transform="translate(-227.96239,-124.41455)"><g data-paper-data="{&quot;isPaintingLayer&quot;:true}" stroke="none" stroke-linecap="butt" stroke-linejoin="miter" stroke-miterlimit="10" stroke-dasharray="" stroke-dashoffset="0" style="mix-blend-mode: normal"><g fill-rule="evenodd" stroke-width="1"><path d="M266.89893,194.41858l4.52932,-2.2866c1.09186,-0.18793 3.37736,-0.86016 4.32111,-1.09912l0.63972,0.55132c-0.7471,0.43899 -7.82081,4.73363 -8.51216,4.42971l-0.73723,-0.75046c-0.14575,-0.34829 -0.14575,-0.34829 -0.24076,-0.84484z" fill="#000000"/><path d="M268.56114,181.85306c1.49268,3.39758 2.43452,6.45656 3.13752,10.06432l-4.47178,2.39719c-0.80848,-4.0027 -3.36195,-8.62344 -7.06284,-10.64932c-2.34759,-1.10454 -4.93261,-1.56118 -7.45429,-1.17605c-0.44515,0.05627 -1.72875,0.37305 -2.17235,0.52845l-3.93321,-13.27411c1.92708,-0.37609 6.13368,-0.78657 8.07199,-0.46888c1.19254,0.18024 2.94227,1.09557 4.74883,2.45619c2.10062,1.15778 3.80968,2.61899 5.4228,4.27994c0.25177,0.244 2.88827,3.87209 3.71333,5.84227z" fill="#0a8e00"/></g><path d="M260.46593,199.34071c-0.4909,0.1401 -9.2572,1.8213 -9.2572,1.8213c-0.3506,-0.4203 -0.6311,-1.1208 -0.8415,-1.6112l5.3298,-1.401c0.7715,0.1401 3.787,0.4203 4.6286,0.4203c0,0.1401 0.2104,0.7005 0.1403,0.7706z" fill="#000000" fill-rule="evenodd" stroke-width="1"/><path d="M251.35253,199.44173c-0.49411,-0.8406 -6.21173,-12.6792 -8.54116,-18.8436c-0.28233,-0.7005 -1.48232,-3.2924 -2.82353,-6.0244h12.28235l4.51763,23.467z" fill="#0a8e00" fill-rule="evenodd" stroke-width="1"/><g fill-rule="nonzero"><path d="M265.78151,170.03638c0,6.33924 -4.03109,11.68465 -9.5351,13.33599c-3.18868,-0.22164 -6.35506,-0.58983 -9.55126,-1.10994c-0.51587,-0.37359 -1.03133,-0.74871 -1.54706,-1.12456c-0.59109,-0.43078 -1.20445,-0.86808 -1.80991,-1.32427c-2.36264,-2.50663 -3.8228,-5.96194 -3.8228,-9.77722c0,-7.65615 5.87988,-13.86268 13.13307,-13.86268c7.25319,0 13.13306,6.20654 13.13306,13.86268z" fill="#000000" stroke-width="0"/><path d="M246.58793,158.67168v23.51308c-0.48008,-0.3479 -0.95985,-0.69707 -1.43984,-1.04689c-1.74434,-1.27126 -3.68263,-2.59915 -5.03922,-4.30253c-0.04585,-0.08507 -0.09171,-0.17009 -0.13761,-0.25503c-0.17619,-0.41873 -0.34352,-0.83928 -0.50242,-1.26022v-11.4362c1.5565,-1.74133 3.29283,-3.52352 5.00786,-5.21221z" fill="#ffd000" stroke-width="0"/><path d="M242.74306,160.7551c0.06593,-0.08791 0.13186,-0.17582 0.19779,-0.26372l0.25911,-0.18987c0,0 0.0163,-0.01088 0.04283,-0.02197c0.33055,-0.57726 0.72621,-1.0439 1.34851,-1.09387v-0.11288h0.26372c0.13807,0 0.25,0.11193 0.25,0.25c0,0.06904 -0.02798,0.13153 -0.07322,0.17677l-0.19779,0.19779l-0.01005,-0.01005l-0.02054,0.03609c-0.2893,0.14464 -0.57862,0.41044 -0.85039,0.71451c-0.7722,1.04955 -1.97178,2.54584 -2.2721,2.66581l-0.23409,0.17557c-0.04212,0.03231 -0.09483,0.05151 -0.15202,0.05151c-0.13807,0 -0.25,-0.11193 -0.25,-0.25c0,-0.06904 0.02798,-0.13153 0.07322,-0.17677l0.19779,-0.19779l0.0184,0.0184c0.31718,-0.63567 0.76666,-1.26497 1.23427,-1.73257l0.10062,-0.15969c0,0 0.02449,-0.03674 0.06832,-0.06904c0.00346,-0.00534 0.00562,-0.00822 0.00562,-0.00822z" fill="#ffd000" stroke-width="0.5"/><path d="M240.99746,176.03512c-0.06971,-0.02648 -0.15045,-0.08782 -0.15045,-0.22988c0,-0.25 0.25,-0.25 0.25,-0.25l0.28954,0.1382c0.491,0.982 1.63152,3.78387 2.34236,3.95691c0,0 0.13721,0.03431 0.17943,0.15451c0.49491,0.24106 1.00131,0.88787 1.42632,1.20663l0.1,0.26593c0,0 0,0.0268 -0.00878,0.06285c-0.09259,-0.06744 -0.18519,-0.1349 -0.27781,-0.2024c-0.79225,-0.57738 -1.6245,-1.16646 -2.4241,-1.79708c-0.67565,-0.94929 -1.33226,-2.4938 -1.72652,-3.30567z" fill="#ffd000" stroke-width="0.5"/><path d="M260.67674,158.52915c1.83214,1.75851 3.68703,3.61441 5.34982,5.42774v13.66884c-0.27056,0.20345 -0.33102,0.51178 -0.33102,0.51178c-0.00236,0.0135 -0.00482,0.02699 -0.00737,0.04049c-0.16608,0.17543 -0.28881,0.37226 -0.3924,0.59075c-0.07502,0.06253 -0.11569,0.11189 -0.11569,0.11189c-0.42678,0.51871 -0.80596,1.03896 -1.15059,1.575l-0.27159,0.34692c-0.9906,1.04518 -2.33089,1.64461 -3.3715,2.63168h-1.96505v-24.90508z" data-paper-data="{&quot;index&quot;:null}" fill="#ffd000" stroke-width="0"/><path d="M246.50327,158.66348h11.9333v24.83794c-3.93325,-0.19034 -7.81482,-0.60003 -11.74142,-1.23899c-0.06396,-0.04632 -0.12793,-0.09268 -0.19188,-0.13905z" fill="#ff0000" stroke-width="0"/></g><g fill-rule="evenodd" stroke-width="1"><path d="M257.17152,148.60168c0.9089,-2.36058 7.93801,-3.75265 6.48365,1.029c-1.45428,4.78164 -6.48365,3.38949 -6.48365,3.38949c0,0 -0.48482,-3.26844 0,-4.41849z" fill="#824600"/><path d="M261.89795,145.33324c0.06057,5.1448 -2.12089,9.74483 -4.30227,12.10541c-3.75697,3.93428 -11.1496,3.14747 -13.0887,2.5422c-3.57518,-1.15005 -6.96846,-6.23437 -8.96813,-10.95545c-0.60595,-1.81589 -1.15135,-3.69216 -1.57551,-5.6291l17.02738,-9.32118c0,0 7.75622,1.63426 8.18038,2.23952c0.60595,0.72632 2.72685,5.44748 2.72685,9.0186z" fill="#a0640a"/><path d="M232.26669,132.44094l0.5453,-0.36325c-0.84832,-2.11839 -2.60554,-5.38691 0.84841,-6.11323c2.12081,-0.42364 5.1506,1.93685 5.75655,3.81322c0.36359,0.18162 0.36359,0.18162 0.72718,-0.06048c-0.24245,-1.57369 -0.96955,-3.57111 0.36351,-4.78164c3.93876,-2.23953 5.81721,3.32901 8.11981,5.56845l0.54539,-0.06049c0.42416,-1.75531 -0.78775,-4.17638 1.81787,-4.23695c1.7573,-0.06048 2.54505,1.45264 3.39337,2.60269c2.12081,2.72374 5.02946,7.56596 5.02946,7.56596c0,0 0,3.02633 -4.54472,3.81322c-2.24203,0.42364 -6.18071,-1.93694 -12.17972,0.42364c-5.99892,2.36058 -5.93834,10.53171 -5.93834,10.53171c0,0 -6.60496,-12.16597 -7.39272,-13.9212c-0.60595,-1.33167 -2.24204,-5.1449 -0.84833,-6.29486c1.03012,-0.84737 2.84799,0.96842 3.75697,1.51321z" fill="#000000"/><path d="M237.65965,152.59652c0,0 -5.02937,1.39207 -6.48373,-3.38958c-1.45428,-4.78164 5.57484,-3.38949 6.48373,-1.02891c0.42416,1.14996 0,4.41849 0,4.41849z" fill="#a0640a"/><path d="M247.05204,151.3859c2.60554,0.24211 4.9688,1.21062 7.39263,2.23953c-1.21192,4.11589 -9.81646,1.5132 -7.39263,-2.23953z" fill="#000000"/><path d="M251.77847,150.11488c-1.45428,-2.60269 4.18113,-4.96327 4.90823,-1.15005c0.48482,2.96585 -3.15093,1.57369 -4.90823,1.15005z" fill="#824600"/><g fill="#000000"><path d="M246.88493,147.50425l-0.36359,0.84737h-0.60596c-0.18179,-1.029 0.60596,-2.60269 0.96955,-0.84737z"/><path d="M259.97362,149.6832l-0.54539,-0.06048l-0.18179,-1.21053c0.36359,-0.42373 0.36359,-0.42373 0.72718,-0.30267c0.1818,0.48422 0.1818,1.029 0,1.57369z"/></g></g></g></g></svg>