<svg version="1.1" xmlns="http://www.w3.org/2000/svg" xmlns:xlink="http://www.w3.org/1999/xlink" width="41.49035" height="69.06263" viewBox="0,0,41.49035,69.06263"><g transform="translate(-785.97856,-397.94903)"><g data-paper-data="{&quot;isPaintingLayer&quot;:true}" stroke="none" stroke-linecap="butt" stroke-linejoin="miter" stroke-miterlimit="10" stroke-dasharray="" stroke-dashoffset="0" style="mix-blend-mode: normal"><path d="M809.40183,467.01165c-0.51049,0.00364 -9.40699,-0.72208 -9.40699,-0.72208c-0.22536,-0.49879 -0.30819,-1.2488 -0.3797,-1.77761l5.51033,0.07619c0.70588,0.34142 3.53646,1.41827 4.34737,1.64346c-0.03749,0.13499 0.01529,0.73126 -0.07101,0.78004z" fill="#000000" fill-rule="evenodd" stroke-width="1"/><path d="M800.07367,464.38793c-0.24808,-0.9413 -2.55377,-13.86818 -3.13426,-20.42706c-0.08284,-0.75001 -0.53805,-3.56641 -1.09095,-6.55533l11.75767,3.26508l-1.95448,23.81229z" fill="#000000" fill-rule="evenodd" stroke-width="1"/><path d="M817.76418,463.35586l5.07234,0.121c1.05136,0.34948 3.38364,0.83515 4.32848,1.06975l0.3039,0.78793c-0.86584,0.03455 -9.12899,0.48349 -9.59515,-0.11067l-0.29592,-1.00953c0.03582,-0.37585 0.03583,-0.37585 0.18635,-0.85848z" fill="#000000" fill-rule="evenodd" stroke-width="1"/><path d="M825.02508,453.26169c-0.37781,3.69173 -1.06771,6.81719 -2.23611,10.30215l-5.07234,-0.121c1.27149,-3.88054 1.33004,-9.15955 -0.88965,-12.74755c-1.49708,-2.11894 -3.52033,-3.79146 -5.90377,-4.70053c-0.41496,-0.17067 -1.68777,-0.52839 -2.15028,-0.61207l3.12754,-13.48668c1.86178,0.62358 5.72332,2.34186 7.25259,3.57447c0.94838,0.74511 2.01878,2.40453 2.91893,4.4793c1.256,2.04341 2.0217,4.15758 2.60542,6.39816c0.09862,0.33644 0.60201,4.79299 0.34769,6.91376z" fill="#000000" fill-rule="evenodd" stroke-width="1"/><path d="M817.68007,435.27632c0,6.33924 -4.03108,11.68466 -9.5351,13.336c-3.18869,-0.22164 -6.35505,-0.58984 -9.55125,-1.10995c-0.51587,-0.37359 -1.03134,-0.7487 -1.54706,-1.12456c-0.59109,-0.43078 -1.20446,-0.86807 -1.80991,-1.32427c-2.36264,-2.50664 -3.8228,-5.96194 -3.8228,-9.77722c0,-7.65615 5.87987,-13.86268 13.13306,-13.86268c7.25319,0 13.13307,6.20654 13.13307,13.86268z" fill="#000000" fill-rule="nonzero" stroke-width="0"/><path d="M798.59173,423.70114v23.51308c-0.48008,-0.3479 -0.95985,-0.69707 -1.43984,-1.04689c-1.74433,-1.27126 -3.68263,-2.59915 -5.03922,-4.30252c-0.04585,-0.08507 -0.09172,-0.17008 -0.13761,-0.25503c-0.17618,-0.41873 -0.34352,-0.83928 -0.50241,-1.26022v-11.43621c1.5565,-1.74133 3.29283,-3.52352 5.00786,-5.21221z" fill="#ffd000" fill-rule="nonzero" stroke-width="0"/><path d="M794.64162,425.99503c0.06593,-0.08791 0.13186,-0.17582 0.19779,-0.26372l0.25912,-0.18987c0,0 0.0163,-0.01088 0.04283,-0.02197c0.33055,-0.57726 0.72621,-1.0439 1.34851,-1.09387v-0.11289h0.26372c0.13807,0 0.25,0.11193 0.25,0.25c0,0.06904 -0.02798,0.13154 -0.07322,0.17678l-0.19779,0.19779l-0.01005,-0.01005l-0.02054,0.03609c-0.2893,0.14464 -0.57862,0.41044 -0.85039,0.7145c-0.7722,1.04955 -1.97178,2.54585 -2.2721,2.66581l-0.23409,0.17557c-0.04212,0.03231 -0.09483,0.05151 -0.15202,0.05151c-0.13807,0 -0.25,-0.11193 -0.25,-0.25c0,-0.06904 0.02798,-0.13153 0.07322,-0.17677l0.19779,-0.19779l0.0184,0.0184c0.31718,-0.63567 0.76666,-1.26497 1.23427,-1.73257l0.10062,-0.15969c0,0 0.02449,-0.03674 0.06832,-0.06904c0.00346,-0.00534 0.00562,-0.00822 0.00562,-0.00822z" fill="#ffd000" fill-rule="nonzero" stroke-width="0.5"/><path d="M792.89603,441.27506c-0.06971,-0.02648 -0.15044,-0.08781 -0.15044,-0.22988c0,-0.25 0.25,-0.25 0.25,-0.25l0.28954,0.1382c0.491,0.982 1.63152,3.78388 2.34236,3.95692c0,0 0.13721,0.0343 0.17942,0.15451c0.49491,0.24106 1.00131,0.88786 1.42633,1.20663l0.1,0.26593c0,0 0,0.0268 -0.00878,0.06286c-0.0926,-0.06744 -0.1852,-0.13491 -0.27781,-0.2024c-0.79225,-0.57739 -1.62451,-1.16645 -2.4241,-1.79708c-0.67565,-0.94929 -1.33226,-2.4938 -1.72652,-3.30567z" fill="#ffd000" fill-rule="nonzero" stroke-width="0.5"/><path d="M812.57531,423.76909c1.83214,1.75852 3.68704,3.6144 5.34982,5.42774v13.66884c-0.27056,0.20346 -0.33103,0.51178 -0.33103,0.51178c-0.00237,0.0135 -0.00482,0.027 -0.00737,0.04049c-0.16608,0.17544 -0.28881,0.37225 -0.3924,0.59074c-0.07502,0.06254 -0.11569,0.1119 -0.11569,0.1119c-0.42678,0.51871 -0.80596,1.03895 -1.15059,1.575l-0.27159,0.34692c-0.9906,1.04518 -2.3309,1.64461 -3.37151,2.63168h-1.96505v-24.90508z" data-paper-data="{&quot;index&quot;:null}" fill="#ffd000" fill-rule="nonzero" stroke-width="0"/><path d="M798.29659,423.90342h11.9333v24.83795c-3.93325,-0.19034 -7.81482,-0.60003 -11.74142,-1.239c-0.06397,-0.04632 -0.12793,-0.09267 -0.19188,-0.13904z" fill="#2800ff" fill-rule="nonzero" stroke-width="0"/><path d="" fill="#ffd000" fill-rule="nonzero" stroke-width="0"/><path d="" fill="#ff0000" fill-rule="nonzero" stroke-width="0"/><path d="M812.17153,413.60168c0.9089,-2.36058 7.93801,-3.75265 6.48365,1.029c-1.45428,4.78164 -6.48365,3.38949 -6.48365,3.38949c0,0 -0.48482,-3.26844 0,-4.41849z" fill="#824600" fill-rule="evenodd" stroke-width="1"/><path d="M816.89796,410.33324c0.06057,5.1448 -2.12089,9.74483 -4.30227,12.10541c-3.75697,3.93428 -11.1496,3.14747 -13.0887,2.5422c-3.57518,-1.15005 -6.96846,-6.23437 -8.96813,-10.95545c-0.60595,-1.81589 -1.15135,-3.69216 -1.57551,-5.6291l17.02738,-9.32118c0,0 7.75622,1.63426 8.18038,2.23952c0.60595,0.72632 2.72685,5.44748 2.72685,9.0186z" fill="#a0640a" fill-rule="evenodd" stroke-width="1"/><path d="M818.91355,402.50654c0,0 0,2.74328 -5.19497,3.45657c-2.56282,0.38401 -7.06504,-1.75578 -13.92238,0.38402c-6.85724,2.13979 -6.788,9.54667 -6.788,9.54667c0,0 -3.73291,-5.45257 -6.26216,-9.24286c0.23197,-0.57051 0.48798,-0.9998 0.77681,-1.07852c3.62945,-0.9892 8.56727,-2.62432 11.99832,-5.39858c2.01194,-0.15344 3.8574,-0.90225 5.36055,-2.07062c0.17251,-0.04694 0.34317,-0.09837 0.51184,-0.15418c3.02373,0.26752 6.6295,0.4885 10.2233,0.43702c1.7516,2.08069 3.2967,4.12048 3.2967,4.12048z" fill="#000000" fill-rule="evenodd" stroke-width="1"/><path d="M792.65966,417.59652c0,0 -5.02937,1.39207 -6.48373,-3.38958c-1.45428,-4.78164 5.57484,-3.38949 6.48373,-1.02891c0.42416,1.14996 0,4.41849 0,4.41849z" fill="#a0640a" fill-rule="evenodd" stroke-width="1"/><path d="M802.05205,416.3859c2.60554,0.24211 4.9688,1.21062 7.39263,2.23953c-1.21192,4.11589 -9.81646,1.5132 -7.39263,-2.23953z" fill="#000000" fill-rule="evenodd" stroke-width="1"/><path d="M806.77848,415.11488c-1.45428,-2.60269 4.18113,-4.96327 4.90823,-1.15005c0.48482,2.96585 -3.15093,1.57369 -4.90823,1.15005z" fill="#824600" fill-rule="evenodd" stroke-width="1"/><path d="M801.88494,412.50425l-0.36359,0.84737h-0.60596c-0.18179,-1.029 0.60596,-2.60269 0.96955,-0.84737z" fill="#000000" fill-rule="evenodd" stroke-width="1"/><path d="M814.97363,414.6832l-0.54539,-0.06048l-0.18179,-1.21053c0.36359,-0.42373 0.36359,-0.42373 0.72718,-0.30267c0.18179,0.48422 0.18179,1.029 0,1.57369z" fill="#000000" fill-rule="evenodd" stroke-width="1"/></g></g></svg>